<?xml version="1.0" encoding="utf-8"?>
<!-- Generator: Adobe Illustrator 22.1.0, SVG Export Plug-In . SVG Version: 6.00 Build 0)  -->
<svg version="1.1" id="Layer_1" xmlns="http://www.w3.org/2000/svg" xmlns:xlink="http://www.w3.org/1999/xlink" x="0px" y="0px"
	 viewBox="0 0 1006.7 187" style="enable-background:new 0 0 1006.7 187;" xml:space="preserve">
<style type="text/css">
	.st0{fill:#009FE3;}
	.st1{fill:#03AEEF;}
	.st2{font-family:'CenturyGothic-BoldItalic';}
	.st3{font-size:160.47px;}
	.st4{fill:#009900;}
</style>
<title>Artboard 1</title>
<g id="Layer_1_1_">
	<path class="st0" d="M898.4,65.1l-14.2,14.5c1.7,2.2,2.9,4.8,3.5,7.6L903,71.5C901.7,69.2,900.2,67.1,898.4,65.1z"/>
	<path class="st0" d="M881.3,76.5l14.1-14.4c-1.9-1.6-3.9-3.1-6.1-4.3c0,0-0.1,0-0.1,0l-14.9,15.1C876.9,73.6,879.3,74.8,881.3,76.5
		z"/>
	<path class="st0" d="M888.3,92.5v0.1c0.1,7.2-2.3,14.2-6.8,19.8c-4.5,5.8-11,8.7-19.7,8.7c-6,0-10.9-1.9-14.5-5.6
		c-3.6-3.7-5.5-8.8-5.5-15c0-7,2.4-13.9,6.7-19.4c4.4-6,10.8-9,19.2-9c0.5,0,1,0,1.5,0l16-16.3c-5.1-2.1-10.5-3.2-16-3.1
		c-12.7,0-23.8,4.6-33.3,13.8c-9.5,9.2-14.3,20.8-14.3,34.7c0,11.6,3.5,20.9,10.5,28c7,7.1,16.4,10.7,28.2,10.7
		c13.6,0,25-4.5,34.2-13.6c9-8.6,14-20.6,13.8-33c0.1-6.1-1.1-12.2-3.5-17.8L888.3,92.5z"/>
</g>
<g id="Layer_2_1_">
	<text transform="matrix(1 0 0 1 -1.831055e-04 137.843)" class="st1 st2 st3">Charge</text>
	<text transform="matrix(1 0 0 1 564.0164 137.8428)" class="st4 st2 st3">Visi  n</text>
</g>
</svg>
