<?xml version="1.0" encoding="utf-8"?>
<!-- Generator: Adobe Illustrator 22.1.0, SVG Export Plug-In . SVG Version: 6.00 Build 0)  -->
<svg version="1.1" id="Layer_1" xmlns="http://www.w3.org/2000/svg" xmlns:xlink="http://www.w3.org/1999/xlink" x="0px" y="0px"
	 viewBox="0 0 1006.7 187" style="enable-background:new 0 0 1006.7 187;" xml:space="preserve">
<style type="text/css">
	.st0{fill:#009FE3;}
	.st1{enable-background:new    ;}
	.st2{fill:#03AEEF;}
	.st3{fill:#009900;}
</style>
<title>Artboard 1</title>
<g id="Layer_1_1_">
	<path class="st0" d="M898.8,65.4l-14.7,15c1.8,2.3,3,5,3.6,7.8l15.8-16.1C902.2,69.7,900.6,67.5,898.8,65.4z"/>
	<path class="st0" d="M881.1,77.2l14.6-14.9c-1.9-1.7-4.1-3.2-6.3-4.5c0,0-0.1,0-0.1,0l-15.4,15.7C876.5,74.2,879,75.5,881.1,77.2z"
		/>
	<path class="st0" d="M888.3,93.8v0.1c0.1,7.4-2.4,14.7-7,20.5c-4.7,6-11.4,9-20.4,9c-6.3,0-11.3-1.9-15-5.8s-5.7-9.1-5.7-15.5
		c0-7.3,2.5-14.4,6.9-20.1c4.6-6.2,11.2-9.3,19.9-9.3c0.5,0,1,0,1.5,0l16.6-16.9c-5.3-2.2-10.9-3.3-16.6-3.2
		c-13.1,0-24.6,4.8-34.4,14.3c-9.8,9.6-14.8,21.5-14.8,35.9c0,12,3.6,21.6,10.9,29c7.3,7.4,17,11.1,29.3,11.1
		c14.1,0,25.9-4.7,35.4-14.1c9.3-8.9,14.5-21.3,14.3-34.2c0.1-6.3-1.2-12.6-3.6-18.5L888.3,93.8z"/>
</g>
<g id="Layer_2_1_">
	<g class="st1">
		<path class="st2" d="M119.4,37.5l-15.7,14.6c-3.4-3.9-7.5-6.9-12.5-9c-4.9-2.1-10.2-3.2-16-3.2c-8,0-15.7,2.1-23.1,6.2
			c-7.4,4.1-13.1,9.6-17.2,16.4c-4.1,6.8-6.2,14-6.2,21.7c0,10.4,3.6,19.1,10.8,26c7.2,6.9,16.5,10.4,27.7,10.4
			c12.1,0,22.5-3.5,31.3-10.5l12.8,16.8c-13.1,9.2-28.3,13.9-45.5,13.9c-12.1,0-22.4-2.3-30.9-6.9c-8.5-4.6-15.3-11.3-20.5-20.3
			c-5.1-8.9-7.7-18.6-7.7-29c0-11.1,3-21.8,9.1-32C22,42.4,30.3,34.4,40.7,28.5c10.4-5.9,21.7-8.8,34-8.8
			C91.9,19.7,106.8,25.6,119.4,37.5z"/>
		<path class="st2" d="M139.1,19.7h20.8l-5.7,41.6c8-7.2,16.3-10.8,25-10.8c7.4,0,13.4,2.3,18.1,7c4.7,4.7,7.1,10.6,7.1,17.7
			c0,3.3-0.4,8.3-1.3,15l-6.5,47.8h-20.9l6.4-46.6c0.6-4.8,0.9-8.4,0.9-10.8c0-3.4-1-6.1-2.9-8c-2-1.9-4.7-2.8-8.4-2.8
			c-3.5,0-7,1.2-10.5,3.6c-3.5,2.4-6.2,5.8-8.1,10.1c-1.9,4.3-3.6,12.4-5.2,24.3l-4.1,30.1h-20.9L139.1,19.7z"/>
		<path class="st2" d="M290.3,52.6h20.9l-11.9,85.2h-20.7l1.3-9.2c-4.6,4.2-8.8,7.2-12.7,8.8c-3.9,1.7-8.4,2.5-13.3,2.5
			c-11.3,0-20.3-4.2-26.9-12.5c-6.7-8.3-10-18-10-29c0-8.4,2.1-16.4,6.4-24c4.3-7.6,10-13.5,17.2-17.8c7.2-4.3,14.7-6.4,22.6-6.4
			c5.3,0,10.1,1.2,14.6,3.6c4.5,2.4,8.1,5.9,11,10.6L290.3,52.6z M258.8,121.4c5.2,0,9.6-1.1,13.5-3.4c3.8-2.3,7.1-5.9,9.7-10.8
			c2.6-4.9,3.9-9.9,3.9-15c0-6.8-2-12.2-5.9-16.3c-3.9-4.1-9.1-6.2-15.5-6.2c-7.5,0-13.8,2.7-19,8.2c-5.2,5.5-7.8,12.6-7.8,21.2
			c0,6.7,2,12.1,5.9,16.1C247.6,119.4,252.6,121.4,258.8,121.4z"/>
		<path class="st2" d="M329.5,52.6h18.6l-1.5,11.6c5.6-9.2,12.3-13.8,20.1-13.8c1.9,0,3.8,0.5,5.9,1.5l-7.7,19
			c-1.6-0.6-2.8-0.9-3.5-0.9c-4.1,0-7.7,2.4-10.9,7.1c-3.2,4.7-5.7,14.3-7.6,28.6l-4.1,32h-21L329.5,52.6z"/>
		<path class="st2" d="M444.5,52.6h21l-9.7,68.4c-1.9,13.4-3.8,22.3-5.7,26.7c-3.1,6.8-8.3,12.4-15.5,16.8
			c-7.3,4.4-16.4,6.7-27.4,6.7c-9.1,0-17.1-1.7-23.8-5.2c-6.8-3.5-11.8-8-15.2-13.4l18.3-9.4c5.5,5.7,12.6,8.5,21.4,8.5
			c5.1,0,9.5-0.9,13.3-2.7c3.7-1.8,6.6-4.3,8.7-7.4c2.1-3.1,3.5-7.7,4.4-13.8c-7.7,6.7-16.5,10.1-26.3,10.1
			c-6.8,0-13.1-1.7-18.9-5.1c-5.8-3.4-10.3-8.1-13.6-14.2c-3.3-6.1-5-12.9-5-20.4c0-8.4,2.2-16.3,6.5-23.7
			c4.3-7.4,10.2-13.3,17.7-17.6c7.5-4.3,15.2-6.5,23.4-6.5c4.9,0,9.4,1,13.4,2.9c4,1.9,7.9,5.1,11.8,9.7L444.5,52.6z M418.8,70.1
			c-7.8,0-14.4,2.7-19.7,8s-8,11.9-8,19.7c0,6.3,2,11.4,6,15.2c4,3.8,9.3,5.7,16,5.7c5,0,9.6-1.2,13.9-3.5s7.6-5.7,10.1-10
			c2.5-4.4,3.7-9,3.7-14.1c0-6-2-11-6.1-15C430.4,72.1,425.2,70.1,418.8,70.1z"/>
		<path class="st2" d="M536.7,112.9l18.4,9.5c-4.1,5.4-9.6,9.7-16.4,12.9c-6.8,3.2-14.4,4.7-22.7,4.7c-13,0-23.3-3.7-30.8-11
			c-7.5-7.3-11.2-17-11.2-29.1c0-13.8,4.7-25.6,14.1-35.1c9.4-9.6,20.7-14.4,34-14.4c8,0,15.1,1.8,21.4,5.2
			c6.2,3.5,11.2,8.6,14.8,15.3c3.6,6.7,5.4,13.9,5.4,21.8c0,2.5-0.3,5.3-0.8,8.6h-68c0.2,5.9,2.2,10.6,5.8,14.2s8.8,5.3,15.2,5.3
			C523.7,120.8,530.6,118.1,536.7,112.9z M542,86c-1.6-5.2-4.2-9.2-7.8-11.9c-3.7-2.7-8.1-4-13.2-4c-5.1,0-9.7,1.4-13.9,4.2
			c-4.1,2.8-7.3,6.7-9.4,11.8H542z"/>
	</g>
	<g class="st1">
		<path class="st3" d="M572.2,22.6h21.1l20.6,83.2l44.6-83.2h23.3l-61.7,115.3h-19.3L572.2,22.6z"/>
		<path class="st3" d="M688,52.6h20.7l-11.5,85.2h-20.9L688,52.6z M702.3,17.7c3.6,0,6.6,1.3,9.1,3.8c2.5,2.5,3.8,5.6,3.8,9.1
			c0,3.6-1.3,6.6-3.8,9.1c-2.5,2.5-5.6,3.8-9.1,3.8c-3.6,0-6.6-1.3-9.1-3.8c-2.5-2.5-3.8-5.6-3.8-9.1c0-3.6,1.3-6.6,3.8-9.1
			C695.7,19,698.8,17.7,702.3,17.7z"/>
		<path class="st3" d="M775,64.5l-10,16c-2.6-3.8-5.3-6.6-8.1-8.4c-2.8-1.8-5.5-2.7-7.9-2.7c-1.9,0-3.5,0.5-4.8,1.6
			c-1.3,1-2,2.2-2,3.5c0,1.3,0.5,2.5,1.6,3.8c1,1.3,4,3.7,9,7.3c8,5.7,13.3,10.7,15.8,14.8c2.5,4.1,3.8,8.6,3.8,13.4
			c0,6.3-2.6,12.3-7.8,17.9c-5.2,5.6-12.7,8.5-22.6,8.5c-5.7,0-10.9-1.2-15.6-3.4c-4.7-2.3-9.9-6.5-15.6-12.6l12.9-15
			c5.8,7.7,12.2,11.6,19.2,11.6c2.8,0,5-0.7,6.6-2s2.5-2.9,2.5-4.7c0-1.5-0.6-3-1.9-4.5c-1.3-1.5-4.7-4.3-10.3-8.3
			c-6.5-4.6-10.9-8.5-13.4-11.8c-3.4-4.6-5.2-9.5-5.2-14.6c0-7.2,2.7-13,8.1-17.5c5.4-4.5,11.8-6.7,19.2-6.7
			c5.2,0,10.1,1.2,14.7,3.7C768.1,56.5,772,60,775,64.5z"/>
		<path class="st3" d="M794.6,52.6h20.7l-11.5,85.2h-20.9L794.6,52.6z M808.9,17.7c3.6,0,6.6,1.3,9.1,3.8c2.5,2.5,3.8,5.6,3.8,9.1
			c0,3.6-1.3,6.6-3.8,9.1c-2.5,2.5-5.6,3.8-9.1,3.8c-3.6,0-6.6-1.3-9.1-3.8c-2.5-2.5-3.8-5.6-3.8-9.1c0-3.6,1.3-6.6,3.8-9.1
			C802.3,19,805.4,17.7,808.9,17.7z"/>
		<path class="st3" d="M925.6,52.6h20.9l-1.2,8.7c8-7.2,16.3-10.8,24.9-10.8c7.4,0,13.4,2.3,18.1,7c4.7,4.7,7.1,10.6,7.1,17.7
			c0,3.3-0.4,8.3-1.3,15l-6.5,47.8h-20.9l6.4-46.6c0.6-4.8,0.9-8.4,0.9-10.8c0-3.4-1-6.1-2.9-8c-2-1.9-4.8-2.8-8.4-2.8
			c-3.5,0-7,1.2-10.5,3.6c-3.5,2.4-6.2,5.8-8.1,10.1s-3.6,12.4-5.2,24.3l-4,30.2H914L925.6,52.6z"/>
	</g>
</g>
</svg>
