<?xml version="1.0" encoding="utf-8"?>
<!-- Generator: Adobe Illustrator 15.0.2, SVG Export Plug-In . SVG Version: 6.00 Build 0)  -->
<!DOCTYPE svg PUBLIC "-//W3C//DTD SVG 1.1//EN" "http://www.w3.org/Graphics/SVG/1.1/DTD/svg11.dtd">
<svg version="1.1" id="Layer_1" xmlns="http://www.w3.org/2000/svg" xmlns:xlink="http://www.w3.org/1999/xlink" x="0px" y="0px"
	 width="568px" height="111px" viewBox="0 0 568 111" enable-background="new 0 0 568 111" xml:space="preserve">
<g>
	<g>
		<defs>
			<rect id="SVGID_1_" x="0.786" y="-2.197" width="566.857" height="113"/>
		</defs>
		<clipPath id="SVGID_2_">
			<use xlink:href="#SVGID_1_"  overflow="visible"/>
		</clipPath>
		<path clip-path="url(#SVGID_2_)" fill-rule="evenodd" clip-rule="evenodd" fill="#FFDD00" d="M284.179-2.197h272.127
			c6.262,0,11.338,5.077,11.338,11.339V99.85c0,6.262-5.076,11.34-11.338,11.34H12.054c-6.262,0-11.339-5.078-11.339-11.34V9.142
			c0-6.263,5.077-11.339,11.339-11.339H284.179z M0.714-2.197"/>
	</g>
	<g>
		<defs>
			<path id="SVGID_3_" d="M284.179,3.472h270.709c3.914,0,7.088,3.173,7.088,7.087v87.875c0,3.914-3.174,7.086-7.088,7.086H13.471
				c-3.914,0-7.087-3.172-7.087-7.086V10.559c0-3.914,3.173-7.087,7.087-7.087H284.179z"/>
		</defs>
		<clipPath id="SVGID_4_">
			<use xlink:href="#SVGID_3_"  overflow="visible"/>
		</clipPath>
		<path clip-path="url(#SVGID_4_)" fill="none" stroke="#0066B3" stroke-width="8.504" stroke-miterlimit="10" d="M284.179,3.472
			h270.709c3.914,0,7.088,3.173,7.088,7.087v87.875c0,3.914-3.174,7.086-7.088,7.086H13.471c-3.914,0-7.087-3.172-7.087-7.086
			V10.559c0-3.914,3.173-7.087,7.087-7.087H284.179z"/>
	</g>
	<path fill-rule="evenodd" clip-rule="evenodd" fill="#0066B3" d="M13.471,103.395c-1.316,0-2.577-0.523-3.508-1.453
		c-0.93-0.932-1.453-2.193-1.453-3.508V10.559c0-1.316,0.523-2.578,1.453-3.508c0.931-0.93,2.192-1.453,3.508-1.453h53.858h4.961
		v97.797H13.471L13.471,103.395z"/>
	<g>
		<defs>
			<path id="SVGID_5_" d="M13.471,105.52c-1.879,0-3.682-0.746-5.011-2.076c-1.329-1.328-2.076-3.131-2.076-5.01V10.559
				c0-1.88,0.747-3.682,2.076-5.011s3.132-2.076,5.011-2.076h53.858h7.087V105.52H13.471L13.471,105.52z"/>
		</defs>
		<clipPath id="SVGID_6_">
			<use xlink:href="#SVGID_5_"  overflow="visible"/>
		</clipPath>
		<path clip-path="url(#SVGID_6_)" fill="none" stroke="#0066B3" stroke-width="8.504" stroke-miterlimit="10" d="M13.471,105.52
			c-1.879,0-3.682-0.746-5.011-2.076c-1.329-1.328-2.076-3.131-2.076-5.01V10.559c0-1.88,0.747-3.682,2.076-5.011
			s3.132-2.076,5.011-2.076h53.858h7.087V105.52H13.471L13.471,105.52z"/>
	</g>
	<g>
		<path d="M91.059,68.127V26.203h11.396c4.043,0,7.275,1.147,9.697,3.442c2.421,2.295,3.633,5.366,3.633,9.214
			c0,2.422-0.518,4.482-1.553,6.182c-1.036,1.699-2.559,2.999-4.57,3.896l11.279,17.461l-8.35,2.52L99.321,47.033V67.6
			L91.059,68.127z M99.321,33.41v11.455l1.875,0.059c1.973,0,3.516-0.513,4.629-1.538s1.67-2.436,1.67-4.233
			c0-1.797-0.557-3.203-1.67-4.219c-1.113-1.015-2.656-1.523-4.629-1.523H99.321z"/>
		<path d="M148.471,64.172c-2.09,1.367-4.209,2.393-6.357,3.076c-2.149,0.684-4.375,1.025-6.68,1.025
			c-2.266,0-4.38-0.386-6.343-1.157s-3.726-1.909-5.288-3.413c-1.582-1.523-2.788-3.257-3.618-5.2
			c-0.831-1.943-1.245-4.009-1.245-6.196c0-2.227,0.405-4.296,1.216-6.211c0.81-1.914,2.026-3.643,3.647-5.186
			c1.563-1.542,3.3-2.69,5.215-3.442c1.914-0.751,4.053-1.128,6.416-1.128c3.203,0,6.074,0.781,8.613,2.344
			c2.539,1.563,4.629,3.838,6.27,6.826l-21.299,13.213c0.918,0.859,1.943,1.504,3.076,1.934c1.132,0.43,2.373,0.645,3.721,0.645
			c1.367,0,2.822-0.283,4.365-0.85c1.542-0.566,3.281-1.465,5.215-2.695L148.471,64.172z M126.498,53.361l13.857-8.496
			c-0.605-0.684-1.333-1.196-2.183-1.538c-0.85-0.341-1.802-0.513-2.856-0.513c-2.539,0-4.654,0.869-6.343,2.607
			c-1.689,1.739-2.534,3.936-2.534,6.592c0,0.371,0.004,0.649,0.015,0.835C126.464,53.035,126.479,53.205,126.498,53.361z"/>
		<path d="M149.428,73.605l4.775-4.746c1.289,1.484,2.739,2.607,4.351,3.369s3.364,1.143,5.259,1.143
			c2.304,0,4.16-0.562,5.566-1.685s2.109-2.583,2.109-4.38c0-1.836-0.806-3.374-2.417-4.614s-3.667-1.86-6.167-1.86
			c-1.172,0-2.344,0.176-3.516,0.527s-2.432,0.908-3.779,1.67l1.729-4.541c-2.383-0.996-4.18-2.329-5.391-3.999
			c-1.211-1.67-1.816-3.657-1.816-5.962c0-3.652,1.352-6.587,4.058-8.804c2.705-2.216,6.313-3.325,10.825-3.325
			c0.918,0,2.109,0.04,3.574,0.117c1.465,0.078,2.471,0.117,3.018,0.117c1.015,0,2.007-0.063,2.974-0.19
			c0.967-0.127,1.879-0.317,2.739-0.571l5.039-1.465l-1.787,7.031l-4.453,0.293c0.938,0.898,1.641,1.919,2.109,3.062
			s0.703,2.388,0.703,3.735c0,1.875-0.488,3.56-1.465,5.054c-0.977,1.494-2.51,2.886-4.6,4.175c2.246,1.289,3.911,2.773,4.995,4.453
			s1.626,3.594,1.626,5.742c0,3.438-1.446,6.338-4.336,8.701c-2.891,2.363-6.485,3.545-10.781,3.545
			c-3.184,0-6.031-0.552-8.54-1.655C153.319,77.438,151.186,75.793,149.428,73.605z M157.748,48.586
			c0,1.934,0.615,3.477,1.846,4.629s2.881,1.729,4.951,1.729c1.992,0,3.618-0.596,4.878-1.787c1.26-1.191,1.89-2.714,1.89-4.57
			c0-1.816-0.635-3.311-1.904-4.482c-1.27-1.172-2.891-1.758-4.863-1.758c-1.953,0-3.574,0.586-4.863,1.758
			S157.748,46.77,157.748,48.586z"/>
		<path d="M198.49,68.273c-0.137,0-0.333,0.01-0.586,0.029c-1.016,0.059-1.699,0.088-2.051,0.088c-4.043,0-6.998-1.04-8.862-3.12
			c-1.865-2.08-2.798-5.386-2.798-9.917V43.723h-4.834l1.846-6.65h2.988v-4.98l7.646-3.721v8.701h7.061v6.65h-7.061v11.689
			c0,2.363,0.4,3.965,1.201,4.805c0.801,0.84,2.256,1.26,4.365,1.26c0.645,0,1.196-0.005,1.655-0.015
			c0.458-0.01,0.903-0.024,1.333-0.044L198.49,68.273z"/>
		<path d="M201.233,68.068V37.072l7.031-0.498v5.273c1.055-1.973,2.476-3.423,4.263-4.351c1.787-0.927,4.047-1.392,6.782-1.392
			h0.908l-2.695,7.383c-2.969,0-5.142,0.831-6.519,2.49c-1.377,1.66-2.065,4.268-2.065,7.822V67.6L201.233,68.068z"/>
		<path d="M237.288,68.273v-3.135c-0.977,1.055-2.129,1.841-3.457,2.358c-1.329,0.518-2.832,0.776-4.512,0.776
			c-3.242,0-5.903-1.011-7.983-3.032s-3.12-4.595-3.12-7.72c0-3.145,1.035-5.669,3.105-7.573c2.07-1.904,4.814-2.856,8.232-2.856
			c1.445,0,2.773,0.186,3.984,0.557c1.211,0.371,2.304,0.918,3.281,1.641v-2.578c0-1.308-0.503-2.285-1.509-2.93
			c-1.006-0.645-2.544-0.967-4.614-0.967c-1.699,0-3.292,0.151-4.775,0.454c-1.484,0.303-2.832,0.757-4.043,1.362l1.729-7.383
			c1.68-0.352,3.237-0.61,4.673-0.776c1.436-0.166,2.758-0.249,3.97-0.249c4.062,0,7.041,0.816,8.936,2.446
			c1.894,1.631,2.842,4.194,2.842,7.69V67.6L237.288,68.273z M225.833,57.287c0,1.406,0.488,2.505,1.465,3.296
			c0.977,0.791,2.333,1.187,4.072,1.187c1.699,0,3.032-0.386,3.999-1.157s1.45-1.841,1.45-3.208c0-1.406-0.479-2.51-1.436-3.311
			c-0.957-0.801-2.275-1.201-3.955-1.201c-1.758,0-3.13,0.391-4.116,1.172C226.326,54.846,225.833,55.92,225.833,57.287z"/>
		<path d="M247.971,68.068V37.072l7.031-0.498v4.453c1.172-1.601,2.48-2.793,3.925-3.574c1.445-0.781,3.057-1.172,4.834-1.172
			c3.008,0,5.318,0.977,6.93,2.93c1.611,1.953,2.416,4.756,2.416,8.408V67.6l-7.676,0.469V49.904c0-2.539-0.317-4.307-0.951-5.303
			c-0.635-0.996-1.715-1.494-3.238-1.494c-1.855,0-3.262,0.625-4.219,1.875c-0.957,1.25-1.435,3.086-1.435,5.508V67.6
			L247.971,68.068z"/>
		<path d="M275.236,63.586l4.688-4.805c1.016,1.074,2.07,1.87,3.165,2.388c1.094,0.518,2.275,0.776,3.545,0.776
			c1.367,0,2.436-0.273,3.207-0.82s1.158-1.309,1.158-2.285c0-1.27-1.357-2.305-4.072-3.105c-0.996-0.293-1.777-0.537-2.344-0.732
			c-2.97-0.996-5.108-2.222-6.417-3.677c-1.309-1.455-1.963-3.306-1.963-5.552c0-2.813,1.045-5.107,3.135-6.885
			c2.09-1.777,4.806-2.666,8.146-2.666c2.07,0,4.018,0.415,5.844,1.245c1.826,0.831,3.57,2.095,5.23,3.794l-5.156,4.131
			c-0.918-1.015-1.836-1.768-2.754-2.256c-0.918-0.488-1.875-0.732-2.871-0.732c-1.094,0-1.959,0.254-2.594,0.762
			c-0.635,0.508-0.951,1.191-0.951,2.051c0,0.86,0.391,1.567,1.172,2.124s2.51,1.226,5.186,2.007
			c3.125,0.957,5.326,2.12,6.605,3.486c1.279,1.367,1.92,3.213,1.92,5.537c0,3.027-1.1,5.474-3.297,7.339s-5.121,2.798-8.773,2.798
			c-2.266,0-4.395-0.415-6.388-1.245C278.664,66.433,276.857,65.207,275.236,63.586z"/>
		<path d="M303.497,68.068V43.723h-4.863l1.846-6.65l3.018-0.029c0.176-4.062,1.236-7.114,3.18-9.155
			c1.943-2.041,4.779-3.062,8.51-3.062h1.553l2.754,6.943h-2.021c-2.324,0-3.955,0.371-4.893,1.113
			c-0.938,0.743-1.406,2.012-1.406,3.809v0.381h6.885v6.65h-6.885V67.6L303.497,68.068z"/>
		<path d="M346.935,64.172c-2.09,1.367-4.209,2.393-6.357,3.076s-4.375,1.025-6.68,1.025c-2.266,0-4.379-0.386-6.342-1.157
			s-3.727-1.909-5.289-3.413c-1.582-1.523-2.787-3.257-3.617-5.2s-1.246-4.009-1.246-6.196c0-2.227,0.406-4.296,1.217-6.211
			c0.811-1.914,2.025-3.643,3.646-5.186c1.563-1.542,3.301-2.69,5.215-3.442c1.914-0.751,4.053-1.128,6.416-1.128
			c3.203,0,6.074,0.781,8.613,2.344c2.539,1.563,4.629,3.838,6.27,6.826l-21.299,13.213c0.918,0.859,1.943,1.504,3.076,1.934
			s2.373,0.645,3.721,0.645c1.367,0,2.822-0.283,4.365-0.85s3.281-1.465,5.215-2.695L346.935,64.172z M324.962,53.361l13.857-8.496
			c-0.605-0.684-1.332-1.196-2.182-1.538c-0.85-0.341-1.803-0.513-2.857-0.513c-2.539,0-4.652,0.869-6.342,2.607
			c-1.689,1.739-2.535,3.936-2.535,6.592c0,0.371,0.006,0.649,0.016,0.835C324.929,53.035,324.942,53.205,324.962,53.361z"/>
		<path d="M350.206,68.068V37.072l7.031-0.498v5.273c1.055-1.973,2.477-3.423,4.264-4.351c1.787-0.927,4.047-1.392,6.781-1.392
			h0.908l-2.695,7.383c-2.969,0-5.141,0.831-6.518,2.49c-1.377,1.66-2.066,4.268-2.066,7.822V67.6L350.206,68.068z"/>
		<path d="M366.896,63.586l4.688-4.805c1.016,1.074,2.07,1.87,3.164,2.388s2.275,0.776,3.545,0.776c1.367,0,2.436-0.273,3.207-0.82
			s1.158-1.309,1.158-2.285c0-1.27-1.357-2.305-4.072-3.105c-0.996-0.293-1.777-0.537-2.344-0.732
			c-2.969-0.996-5.107-2.222-6.416-3.677c-1.309-1.455-1.963-3.306-1.963-5.552c0-2.813,1.045-5.107,3.135-6.885
			c2.09-1.777,4.805-2.666,8.145-2.666c2.07,0,4.018,0.415,5.844,1.245c1.826,0.831,3.57,2.095,5.23,3.794l-5.156,4.131
			c-0.918-1.015-1.836-1.768-2.754-2.256c-0.918-0.488-1.875-0.732-2.871-0.732c-1.094,0-1.959,0.254-2.594,0.762
			c-0.635,0.508-0.951,1.191-0.951,2.051c0,0.86,0.391,1.567,1.172,2.124s2.51,1.226,5.186,2.007
			c3.125,0.957,5.326,2.12,6.605,3.486c1.279,1.367,1.92,3.213,1.92,5.537c0,3.027-1.1,5.474-3.297,7.339s-5.121,2.798-8.773,2.798
			c-2.266,0-4.395-0.415-6.387-1.245S368.517,65.207,366.896,63.586z"/>
		<path d="M399.054,68.186l-5.361-5.625l5.039-5.449l5.537,5.449L399.054,68.186z"/>
		<path d="M434.317,64.406c-1.68,1.309-3.443,2.28-5.289,2.915s-3.803,0.952-5.873,0.952c-4.648,0-8.512-1.528-11.588-4.585
			s-4.613-6.851-4.613-11.382c0-2.187,0.42-4.272,1.26-6.255c0.84-1.982,2.041-3.716,3.604-5.2c1.484-1.465,3.193-2.583,5.127-3.354
			c1.934-0.771,4.004-1.157,6.211-1.157c2.09,0,4.057,0.298,5.902,0.894c1.846,0.596,3.6,1.499,5.26,2.71l-4.131,5.889
			c-1.191-0.859-2.32-1.484-3.385-1.875c-1.064-0.391-2.182-0.586-3.354-0.586c-2.617,0-4.723,0.82-6.314,2.461
			s-2.387,3.799-2.387,6.475c0,2.539,0.83,4.634,2.49,6.284s3.75,2.476,6.27,2.476c1.035,0,2.08-0.19,3.135-0.571
			s2.256-0.991,3.604-1.831L434.317,64.406z"/>
		<path d="M434.366,52.307c0-2.207,0.41-4.277,1.23-6.211s2.031-3.662,3.633-5.186c1.543-1.484,3.311-2.617,5.303-3.398
			c1.992-0.781,4.102-1.172,6.328-1.172s4.35,0.396,6.371,1.187s3.824,1.938,5.406,3.442c1.563,1.504,2.754,3.218,3.574,5.142
			c0.82,1.924,1.23,3.989,1.23,6.196s-0.41,4.282-1.23,6.226s-2.012,3.667-3.574,5.171c-1.523,1.465-3.307,2.593-5.348,3.384
			s-4.184,1.187-6.43,1.187c-2.266,0-4.381-0.386-6.344-1.157s-3.725-1.909-5.287-3.413c-1.582-1.543-2.789-3.291-3.619-5.244
			S434.366,54.455,434.366,52.307z M442.159,52.307c0,2.559,0.834,4.697,2.504,6.416s3.736,2.578,6.197,2.578
			c2.402,0,4.463-0.884,6.182-2.651s2.578-3.882,2.578-6.343c0-2.597-0.83-4.736-2.49-6.416c-1.66-1.68-3.75-2.52-6.27-2.52
			c-2.461,0-4.527,0.845-6.197,2.534C442.993,47.595,442.159,49.729,442.159,52.307z"/>
		<path d="M475.429,68.186l-5.361-5.625l5.039-5.449l5.537,5.449L475.429,68.186z"/>
		<path d="M509.901,36.574V67.6l-7.061,0.732v-4.746c-1.172,1.582-2.484,2.769-3.939,3.56s-3.063,1.187-4.82,1.187
			c-3.027,0-5.346-0.972-6.957-2.915s-2.418-4.731-2.418-8.364v-19.98l7.676-0.498v18.193c0,2.539,0.322,4.302,0.967,5.288
			s1.729,1.479,3.252,1.479c1.836,0,3.232-0.63,4.189-1.89s1.436-3.11,1.436-5.552V37.072L509.901,36.574z"/>
		<path d="M514.11,68.068V25.705l7.617-0.469V67.6L514.11,68.068z M521.728,51.809l13.447-16.055l7.031,2.93l-11.455,12.715
			l11.865,14.824l-7.793,2.344L521.728,51.809z"/>
	</g>
	<g>
		<defs>
			<path id="SVGID_7_" d="M13.765,71.52h18.573c1.079,0,1.592,1.047,1.592,1.047s1.981,3.592,1.981,7.633
				c0,4.039-3.792,7.93-3.792,7.93s8.532,10.252,8.79,11.074c0.259,0.824-0.861,0.6-0.861,0.6h-9.222H29.19L19.711,88.43
				c-0.69-0.898,0.23-1.422,0.23-1.422s6.319-4.863,6.319-5.611s-0.086,0-0.086,0H13.765c-1.552,0-1.711-1.197-1.711-1.197v-7.633
				C12.054,71.371,13.765,71.52,13.765,71.52L13.765,71.52z"/>
		</defs>
		<clipPath id="SVGID_8_">
			<use xlink:href="#SVGID_7_"  overflow="visible"/>
		</clipPath>
		<polyline clip-path="url(#SVGID_8_)" fill="#FFFFFF" points="-4.104,85.672 26.488,116.266 57.08,85.672 26.488,55.08 		"/>
	</g>
	<path fill-rule="evenodd" clip-rule="evenodd" fill="#FFFFFF" d="M40.135,71.52H66.85c1.897,0,1.897,1.047,1.897,1.047v7.633
		c0,1.197-1.897,1.197-1.897,1.197h-8.532v16.986c0,1.869-1.293,1.42-1.293,1.42h-6.894c-2.154,0-1.809-1.42-1.809-1.42V81.396
		h-8.187c-2.153,0-1.982-1.197-1.982-1.197v-7.633C38.153,71.295,40.135,71.52,40.135,71.52L40.135,71.52z"/>
	<path fill-rule="evenodd" clip-rule="evenodd" fill="#FFDD00" d="M44.565,13.363c0,2.31-1.872,4.184-4.179,4.184
		c-2.307,0-4.179-1.875-4.179-4.184s1.872-4.184,4.179-4.184C42.693,9.179,44.565,11.053,44.565,13.363L44.565,13.363z"/>
	<path fill-rule="evenodd" clip-rule="evenodd" fill="#FFDD00" d="M44.564,61.604c0,2.309-1.872,4.184-4.179,4.184
		c-2.306,0-4.178-1.875-4.178-4.184c0-2.311,1.872-4.186,4.178-4.186C42.692,57.418,44.564,59.293,44.564,61.604L44.564,61.604z"/>
	<path fill-rule="evenodd" clip-rule="evenodd" fill="#FFDD00" d="M68.805,37.483c0,2.31-1.873,4.184-4.179,4.184
		s-4.179-1.875-4.179-4.184s1.873-4.184,4.179-4.184S68.805,35.173,68.805,37.483L68.805,37.483z"/>
	<path fill-rule="evenodd" clip-rule="evenodd" fill="#FFDD00" d="M20.325,37.483c0,2.31-1.872,4.184-4.179,4.184
		s-4.179-1.875-4.179-4.184s1.872-4.184,4.179-4.184S20.325,35.173,20.325,37.483L20.325,37.483z"/>
	<path fill-rule="evenodd" clip-rule="evenodd" fill="#FFDD00" d="M23.924,49.363c0,2.31-1.872,4.184-4.178,4.184
		c-2.307,0-4.179-1.875-4.179-4.184s1.872-4.184,4.179-4.184C22.052,45.179,23.924,47.053,23.924,49.363L23.924,49.363z"/>
	<path fill-rule="evenodd" clip-rule="evenodd" fill="#FFDD00" d="M32.564,58.363c0,2.309-1.872,4.184-4.179,4.184
		c-2.306,0-4.178-1.875-4.178-4.184c0-2.311,1.872-4.184,4.178-4.184C30.692,54.18,32.564,56.053,32.564,58.363L32.564,58.363z"/>
	<path fill-rule="evenodd" clip-rule="evenodd" fill="#FFDD00" d="M56.804,58.482c0,2.311-1.872,4.186-4.178,4.186
		s-4.178-1.875-4.178-4.186c0-2.309,1.872-4.184,4.178-4.184S56.804,56.174,56.804,58.482L56.804,58.482z"/>
	<path fill-rule="evenodd" clip-rule="evenodd" fill="#FFDD00" d="M65.444,49.603c0,2.31-1.872,4.184-4.178,4.184
		c-2.307,0-4.179-1.874-4.179-4.184s1.872-4.184,4.179-4.184C63.572,45.419,65.444,47.293,65.444,49.603L65.444,49.603z"/>
	<path fill-rule="evenodd" clip-rule="evenodd" fill="#FFDD00" d="M65.444,25.363c0,2.31-1.872,4.184-4.178,4.184
		s-4.179-1.875-4.179-4.184s1.872-4.184,4.179-4.184S65.444,23.053,65.444,25.363L65.444,25.363z"/>
	<path fill-rule="evenodd" clip-rule="evenodd" fill="#FFDD00" d="M56.805,16.723c0,2.31-1.873,4.184-4.179,4.184
		s-4.179-1.875-4.179-4.184s1.873-4.184,4.179-4.184S56.805,14.413,56.805,16.723L56.805,16.723z"/>
	<path fill-rule="evenodd" clip-rule="evenodd" fill="#FFDD00" d="M32.804,16.603c0,2.31-1.872,4.184-4.178,4.184
		s-4.178-1.874-4.178-4.184s1.872-4.184,4.178-4.184S32.804,14.293,32.804,16.603L32.804,16.603z"/>
	<path fill-rule="evenodd" clip-rule="evenodd" fill="#FFDD00" d="M23.924,25.483c0,2.31-1.872,4.185-4.178,4.185
		c-2.307,0-4.179-1.875-4.179-4.185c0-2.31,1.872-4.185,4.179-4.185C22.052,21.298,23.924,23.173,23.924,25.483L23.924,25.483z"/>
	<rect x="125.439" y="82.842" fill-rule="evenodd" clip-rule="evenodd" fill="#FFDD00" width="374.173" height="25.471"/>
	<g>
		<path fill="#0066B3" d="M143.841,86.489h6.711c1.085,0,1.888,0.05,2.411,0.149s0.991,0.265,1.406,0.496
			c0.806,0.431,1.416,1.051,1.83,1.86c0.415,0.81,0.622,1.78,0.622,2.913c0,0.933-0.171,1.769-0.514,2.506
			c-0.343,0.738-0.841,1.351-1.496,1.837c-0.446,0.327-0.969,0.563-1.567,0.705c-0.598,0.145-1.423,0.216-2.476,0.216h-3.996v6.938
			h-2.931V86.489z M146.772,89.037V94.6h3.805c1.188,0,2.035-0.215,2.542-0.646c0.506-0.431,0.76-1.137,0.76-2.117
			c0-0.966-0.251-1.673-0.754-2.124c-0.502-0.45-1.296-0.676-2.381-0.676H146.772z"/>
	</g>
	<g>
		<defs>
			<rect id="SVGID_9_" x="0.786" y="-2.197" width="566.857" height="113"/>
		</defs>
		<clipPath id="SVGID_10_">
			<use xlink:href="#SVGID_9_"  overflow="visible"/>
		</clipPath>
		<g clip-path="url(#SVGID_10_)">
			<path fill="none" stroke="#0066B3" stroke-width="0.735" stroke-miterlimit="10" d="M143.774,86.458h6.711
				c1.085,0,1.888,0.05,2.411,0.149s0.991,0.265,1.406,0.496c0.806,0.431,1.416,1.051,1.83,1.86c0.415,0.81,0.622,1.78,0.622,2.913
				c0,0.933-0.171,1.769-0.514,2.506c-0.343,0.738-0.841,1.351-1.496,1.837c-0.446,0.327-0.969,0.563-1.567,0.705
				c-0.598,0.145-1.423,0.216-2.476,0.216h-3.996v6.938h-2.931V86.458z M146.705,89.006v5.563h3.805
				c1.188,0,2.035-0.215,2.542-0.646c0.506-0.431,0.76-1.137,0.76-2.117c0-0.966-0.251-1.673-0.754-2.124
				c-0.502-0.45-1.296-0.676-2.381-0.676H146.705z"/>
		</g>
	</g>
	<g>
		<path fill="#0066B3" d="M159.576,86.489h12.633v2.584h-9.75v4.605h8.996v2.465h-8.996v5.323h10.073v2.644h-12.956V86.489z"/>
	</g>
	<g>
		<defs>
			<rect id="SVGID_11_" x="0.786" y="-2.197" width="566.857" height="113"/>
		</defs>
		<clipPath id="SVGID_12_">
			<use xlink:href="#SVGID_11_"  overflow="visible"/>
		</clipPath>
		<g clip-path="url(#SVGID_12_)">
			<path fill="none" stroke="#0066B3" stroke-width="0.735" stroke-miterlimit="10" d="M159.599,86.458h12.633v2.584h-9.75v4.605
				h8.996v2.465h-8.996v5.323h10.073v2.644h-12.956V86.458z"/>
		</g>
	</g>
	<g>
		<path fill="#0066B3" d="M175.263,86.489h7.597c0.231,0,0.486,0.008,0.766,0.023c0.087,0.008,0.139,0.012,0.155,0.012
			c1.555,0,2.773,0.436,3.655,1.305c0.881,0.869,1.322,2.065,1.322,3.589c0,0.997-0.219,1.85-0.658,2.56
			c-0.438,0.71-1.061,1.221-1.866,1.531c0.718,0.231,1.234,0.597,1.549,1.095c0.315,0.499,0.5,1.31,0.556,2.435l0.156,2.524
			c0,0.008,0,0.016,0,0.023c0.048,1.101,0.291,1.771,0.73,2.01v0.515h-3.278c-0.127-0.231-0.225-0.504-0.293-0.819
			s-0.118-0.815-0.149-1.501l-0.096-2.105c-0.064-1.133-0.301-1.887-0.712-2.262s-1.106-0.563-2.087-0.563h-0.562h-3.876v7.25
			h-2.907V86.489z M178.146,88.966v5.419h4.199c1.228,0,2.109-0.216,2.644-0.646c0.535-0.431,0.802-1.128,0.802-2.093
			c0-0.941-0.261-1.623-0.784-2.046s-1.386-0.634-2.59-0.634H178.146z"/>
	</g>
	<g>
		<defs>
			<rect id="SVGID_13_" x="0.786" y="-2.197" width="566.857" height="113"/>
		</defs>
		<clipPath id="SVGID_14_">
			<use xlink:href="#SVGID_13_"  overflow="visible"/>
		</clipPath>
		<g clip-path="url(#SVGID_14_)">
			<path fill="none" stroke="#0066B3" stroke-width="0.735" stroke-miterlimit="10" d="M175.208,86.458h7.597
				c0.231,0,0.486,0.008,0.766,0.023c0.087,0.008,0.139,0.012,0.155,0.012c1.555,0,2.773,0.436,3.655,1.305
				c0.881,0.869,1.322,2.065,1.322,3.589c0,0.997-0.219,1.85-0.658,2.56c-0.438,0.71-1.061,1.221-1.866,1.531
				c0.718,0.231,1.234,0.597,1.549,1.095c0.315,0.499,0.5,1.31,0.556,2.435l0.156,2.524c0,0.008,0,0.016,0,0.023
				c0.048,1.101,0.291,1.771,0.73,2.01v0.515h-3.278c-0.127-0.231-0.225-0.504-0.293-0.819s-0.118-0.815-0.149-1.501l-0.096-2.105
				c-0.064-1.133-0.301-1.887-0.712-2.262s-1.106-0.563-2.087-0.563h-0.562h-3.876v7.25h-2.907V86.458z M178.091,88.935v5.419h4.199
				c1.228,0,2.109-0.216,2.644-0.646c0.535-0.431,0.802-1.128,0.802-2.093c0-0.941-0.261-1.623-0.784-2.046s-1.386-0.634-2.59-0.634
				H178.091z"/>
		</g>
	</g>
	<g>
		<path fill="#0066B3" d="M204.559,91.633l-2.787,0.013c-0.064-0.997-0.441-1.779-1.131-2.346c-0.69-0.565-1.613-0.849-2.77-0.849
			c-0.957,0-1.738,0.223-2.345,0.67c-0.606,0.446-0.909,1.001-0.909,1.663c0,0.67,0.268,1.218,0.802,1.645s1.655,0.859,3.361,1.298
			c2.592,0.654,4.285,1.364,5.079,2.13c0.793,0.766,1.19,1.834,1.19,3.205c0,1.659-0.62,2.993-1.86,4.002
			c-1.24,1.009-2.897,1.514-4.971,1.514c-2.185,0-3.886-0.526-5.102-1.579c-1.216-1.053-1.868-2.568-1.956-4.546h2.847
			c0.08,1.141,0.508,2.025,1.286,2.655c0.777,0.63,1.832,0.945,3.164,0.945c1.005,0,1.828-0.243,2.47-0.729s0.963-1.085,0.963-1.795
			c0-0.279-0.089-0.596-0.269-0.951c-0.179-0.354-0.409-0.659-0.688-0.915c-0.462-0.423-1.491-0.829-3.086-1.22
			c-0.343-0.088-0.603-0.151-0.778-0.191c-1.97-0.519-3.362-1.179-4.175-1.98c-0.813-0.801-1.22-1.892-1.22-3.271
			c0-1.468,0.596-2.662,1.788-3.583s2.777-1.382,4.755-1.382c1.922,0,3.455,0.505,4.6,1.514S204.543,89.918,204.559,91.633z"/>
	</g>
	<g>
		<defs>
			<rect id="SVGID_15_" x="0.786" y="-2.197" width="566.857" height="113"/>
		</defs>
		<clipPath id="SVGID_16_">
			<use xlink:href="#SVGID_15_"  overflow="visible"/>
		</clipPath>
		<g clip-path="url(#SVGID_16_)">
			<path fill="none" stroke="#0066B3" stroke-width="0.735" stroke-miterlimit="10" d="M204.59,91.602l-2.787,0.013
				c-0.064-0.997-0.441-1.779-1.131-2.346c-0.69-0.565-1.613-0.849-2.77-0.849c-0.957,0-1.738,0.223-2.345,0.67
				c-0.606,0.446-0.909,1.001-0.909,1.663c0,0.67,0.268,1.218,0.802,1.645s1.655,0.859,3.361,1.298
				c2.592,0.654,4.285,1.364,5.079,2.13c0.793,0.766,1.19,1.834,1.19,3.205c0,1.659-0.62,2.993-1.86,4.002
				c-1.24,1.009-2.897,1.514-4.971,1.514c-2.185,0-3.886-0.526-5.102-1.579c-1.216-1.053-1.868-2.568-1.956-4.546h2.847
				c0.08,1.141,0.508,2.025,1.286,2.655c0.777,0.63,1.832,0.945,3.164,0.945c1.005,0,1.828-0.243,2.47-0.729
				s0.963-1.085,0.963-1.795c0-0.279-0.089-0.596-0.269-0.951c-0.179-0.354-0.409-0.659-0.688-0.915
				c-0.462-0.423-1.491-0.829-3.086-1.22c-0.343-0.088-0.603-0.151-0.778-0.191c-1.97-0.519-3.362-1.179-4.175-1.98
				c-0.813-0.801-1.22-1.892-1.22-3.271c0-1.468,0.596-2.662,1.788-3.583s2.777-1.382,4.755-1.382c1.922,0,3.455,0.505,4.6,1.514
				S204.574,89.887,204.59,91.602z"/>
		</g>
	</g>
	<g>
		<path fill="#0066B3" d="M215.604,86.034c2.616,0,4.677,0.828,6.185,2.482c1.507,1.655,2.261,3.922,2.261,6.801
			s-0.753,5.146-2.261,6.801c-1.507,1.655-3.569,2.482-6.185,2.482c-2.624,0-4.689-0.825-6.197-2.477
			c-1.507-1.65-2.261-3.919-2.261-6.807c0-2.887,0.754-5.156,2.261-6.807C210.915,86.86,212.98,86.034,215.604,86.034z
			 M215.604,88.583c-1.715,0-3.055,0.592-4.02,1.776c-0.965,1.184-1.448,2.837-1.448,4.958c0,2.113,0.482,3.765,1.448,4.953
			c0.965,1.188,2.305,1.782,4.02,1.782c1.707,0,3.042-0.594,4.007-1.782s1.448-2.84,1.448-4.953c0-2.121-0.481-3.774-1.442-4.958
			C218.656,89.175,217.318,88.583,215.604,88.583z"/>
	</g>
	<g>
		<defs>
			<rect id="SVGID_17_" x="0.786" y="-2.197" width="566.857" height="113"/>
		</defs>
		<clipPath id="SVGID_18_">
			<use xlink:href="#SVGID_17_"  overflow="visible"/>
		</clipPath>
		<g clip-path="url(#SVGID_18_)">
			<path fill="none" stroke="#0066B3" stroke-width="0.735" stroke-miterlimit="10" d="M215.544,86.003
				c2.616,0,4.677,0.828,6.185,2.482c1.507,1.655,2.261,3.922,2.261,6.801s-0.753,5.146-2.261,6.801
				c-1.507,1.655-3.569,2.482-6.185,2.482c-2.624,0-4.689-0.825-6.197-2.477c-1.507-1.65-2.261-3.919-2.261-6.807
				c0-2.887,0.754-5.156,2.261-6.807C210.855,86.829,212.92,86.003,215.544,86.003z M215.544,88.552
				c-1.715,0-3.055,0.592-4.02,1.776c-0.965,1.184-1.448,2.837-1.448,4.958c0,2.113,0.482,3.765,1.448,4.953
				c0.965,1.188,2.305,1.782,4.02,1.782c1.707,0,3.042-0.594,4.007-1.782S221,97.399,221,95.286c0-2.121-0.481-3.774-1.442-4.958
				C218.597,89.144,217.259,88.552,215.544,88.552z"/>
		</g>
	</g>
	<g>
		<path fill="#0066B3" d="M226.93,86.489h3.11l8.207,13.183V86.489h2.835v17.621h-3.087l-8.254-13.184v13.184h-2.812V86.489z"/>
	</g>
	<g>
		<defs>
			<rect id="SVGID_19_" x="0.786" y="-2.197" width="566.857" height="113"/>
		</defs>
		<clipPath id="SVGID_20_">
			<use xlink:href="#SVGID_19_"  overflow="visible"/>
		</clipPath>
		<g clip-path="url(#SVGID_20_)">
			<path fill="none" stroke="#0066B3" stroke-width="0.735" stroke-miterlimit="10" d="M226.813,86.458h3.11l8.207,13.183V86.458
				h2.835v17.621h-3.087l-8.254-13.184v13.184h-2.812V86.458z"/>
		</g>
	</g>
	<g>
		<path fill="#0066B3" d="M249.238,86.489h3.302l6.472,17.621h-3.135l-1.579-4.558h-6.855l-1.543,4.558h-3.063L249.238,86.489z
			 M250.876,89.456l-2.62,7.645h5.24L250.876,89.456z"/>
	</g>
	<g>
		<defs>
			<rect id="SVGID_21_" x="0.786" y="-2.197" width="566.857" height="113"/>
		</defs>
		<clipPath id="SVGID_22_">
			<use xlink:href="#SVGID_21_"  overflow="visible"/>
		</clipPath>
		<g clip-path="url(#SVGID_22_)">
			<path fill="none" stroke="#0066B3" stroke-width="0.735" stroke-miterlimit="10" d="M249.347,86.458h3.302l6.472,17.621h-3.135
				l-1.579-4.558h-6.855l-1.543,4.558h-3.063L249.347,86.458z M250.986,89.425l-2.62,7.645h5.24L250.986,89.425z"/>
		</g>
	</g>
	<g>
		<path fill="#0066B3" d="M260.717,86.489h2.93v14.953h8.697v2.668h-11.627V86.489z"/>
	</g>
	<g>
		<defs>
			<rect id="SVGID_23_" x="0.786" y="-2.197" width="566.857" height="113"/>
		</defs>
		<clipPath id="SVGID_24_">
			<use xlink:href="#SVGID_23_"  overflow="visible"/>
		</clipPath>
		<g clip-path="url(#SVGID_24_)">
			<path fill="none" stroke="#0066B3" stroke-width="0.735" stroke-miterlimit="10" d="M260.648,86.458h2.932v14.953h8.697v2.668
				h-11.629V86.458z"/>
		</g>
	</g>
	<g>
		<path fill="#0066B3" d="M281.837,86.489h3.109l8.207,13.183V86.489h2.836v17.621h-3.088l-8.254-13.184v13.184h-2.811V86.489z"/>
	</g>
	<g>
		<defs>
			<rect id="SVGID_25_" x="0.786" y="-2.197" width="566.857" height="113"/>
		</defs>
		<clipPath id="SVGID_26_">
			<use xlink:href="#SVGID_25_"  overflow="visible"/>
		</clipPath>
		<g clip-path="url(#SVGID_26_)">
			<path fill="none" stroke="#0066B3" stroke-width="0.735" stroke-miterlimit="10" d="M281.773,86.458h3.11l8.207,13.183V86.458
				h2.836v17.621h-3.088l-8.254-13.184v13.184h-2.812V86.458z"/>
		</g>
	</g>
	<g>
		<path fill="#0066B3" d="M299.472,86.489h2.941v10.958c0,1.523,0.328,2.647,0.982,3.373c0.652,0.726,1.666,1.089,3.037,1.089
			c1.381,0,2.398-0.365,3.057-1.095s0.988-1.853,0.988-3.367V86.489h2.941v11.125c0,2.233-0.605,3.956-1.818,5.168
			c-1.211,1.213-2.934,1.818-5.168,1.818c-2.289,0-4.021-0.588-5.197-1.765c-1.176-1.176-1.764-2.917-1.764-5.222V86.489z"/>
	</g>
	<g>
		<defs>
			<rect id="SVGID_27_" x="0.786" y="-2.197" width="566.857" height="113"/>
		</defs>
		<clipPath id="SVGID_28_">
			<use xlink:href="#SVGID_27_"  overflow="visible"/>
		</clipPath>
		<g clip-path="url(#SVGID_28_)">
			<path fill="none" stroke="#0066B3" stroke-width="0.735" stroke-miterlimit="10" d="M299.421,86.458h2.943v10.958
				c0,1.523,0.326,2.647,0.98,3.373s1.668,1.089,3.039,1.089c1.379,0,2.398-0.365,3.057-1.095s0.986-1.853,0.986-3.367V86.458h2.943
				v11.125c0,2.233-0.605,3.956-1.818,5.168c-1.213,1.213-2.936,1.818-5.168,1.818c-2.289,0-4.021-0.588-5.197-1.765
				c-1.178-1.176-1.766-2.917-1.766-5.222V86.458z"/>
		</g>
	</g>
	<g>
		<path fill="#0066B3" d="M316.888,86.489h4.26l4.234,14.092l4.295-14.092h4.258v17.621h-2.787V89.552l-4.365,14.559h-2.871
			l-4.307-14.559v14.559h-2.717V86.489z"/>
	</g>
	<g>
		<defs>
			<rect id="SVGID_29_" x="0.786" y="-2.197" width="566.857" height="113"/>
		</defs>
		<clipPath id="SVGID_30_">
			<use xlink:href="#SVGID_29_"  overflow="visible"/>
		</clipPath>
		<g clip-path="url(#SVGID_30_)">
			<path fill="none" stroke="#0066B3" stroke-width="0.735" stroke-miterlimit="10" d="M316.81,86.458h4.26l4.234,14.092
				l4.295-14.092h4.258v17.621h-2.787V89.521l-4.365,14.559h-2.871l-4.307-14.559v14.559h-2.717V86.458z"/>
		</g>
	</g>
	<g>
		<path fill="#0066B3" d="M337.528,86.489h7.621c1.842,0,3.219,0.371,4.133,1.112s1.369,1.858,1.369,3.35
			c0,0.837-0.205,1.579-0.615,2.226c-0.41,0.646-0.986,1.12-1.729,1.423c1.012,0.287,1.779,0.794,2.303,1.52
			c0.521,0.726,0.783,1.651,0.783,2.775c0,1.603-0.549,2.873-1.645,3.811c-1.098,0.937-2.598,1.405-4.504,1.405h-7.717V86.489z
			 M340.388,88.941v4.714h4.164c1.1,0,1.902-0.2,2.41-0.599c0.506-0.398,0.76-1.024,0.76-1.878c0-0.75-0.254-1.311-0.76-1.681
			c-0.508-0.371-1.273-0.557-2.303-0.557H340.388z M340.388,96.048v5.467h4.605c1.133,0,1.98-0.229,2.543-0.688
			c0.563-0.458,0.844-1.154,0.844-2.087c0-0.926-0.283-1.605-0.85-2.04s-1.469-0.651-2.703-0.651H340.388z"/>
	</g>
	<g>
		<defs>
			<rect id="SVGID_31_" x="0.786" y="-2.197" width="566.857" height="113"/>
		</defs>
		<clipPath id="SVGID_32_">
			<use xlink:href="#SVGID_31_"  overflow="visible"/>
		</clipPath>
		<g clip-path="url(#SVGID_32_)">
			<path fill="none" stroke="#0066B3" stroke-width="0.735" stroke-miterlimit="10" d="M337.454,86.458h7.619
				c1.844,0,3.221,0.371,4.135,1.112c0.912,0.741,1.369,1.858,1.369,3.35c0,0.837-0.205,1.579-0.617,2.226
				c-0.41,0.646-0.986,1.12-1.729,1.423c1.014,0.287,1.781,0.794,2.303,1.52c0.523,0.726,0.785,1.651,0.785,2.775
				c0,1.603-0.549,2.873-1.646,3.811c-1.096,0.937-2.598,1.405-4.504,1.405h-7.715V86.458z M340.313,88.91v4.714h4.162
				c1.102,0,1.904-0.2,2.41-0.599c0.508-0.398,0.76-1.024,0.76-1.878c0-0.75-0.252-1.311-0.76-1.681
				c-0.506-0.371-1.273-0.557-2.303-0.557H340.313z M340.313,96.017v5.467h4.605c1.133,0,1.979-0.229,2.541-0.688
				c0.563-0.458,0.844-1.154,0.844-2.087c0-0.926-0.283-1.605-0.85-2.04s-1.467-0.651-2.703-0.651H340.313z"/>
		</g>
	</g>
	<g>
		<path fill="#0066B3" d="M354.04,86.489h12.633v2.584h-9.75v4.605h8.996v2.465h-8.996v5.323h10.072v2.644H354.04V86.489z"/>
	</g>
	<g>
		<defs>
			<rect id="SVGID_33_" x="0.786" y="-2.197" width="566.857" height="113"/>
		</defs>
		<clipPath id="SVGID_34_">
			<use xlink:href="#SVGID_33_"  overflow="visible"/>
		</clipPath>
		<g clip-path="url(#SVGID_34_)">
			<path fill="none" stroke="#0066B3" stroke-width="0.735" stroke-miterlimit="10" d="M353.997,86.458h12.633v2.584h-9.75v4.605
				h8.996v2.465h-8.996v5.323h10.074v2.644h-12.957V86.458z"/>
		</g>
	</g>
	<g>
		<path fill="#0066B3" d="M369.704,86.489h7.596c0.232,0,0.486,0.008,0.766,0.023c0.088,0.008,0.141,0.012,0.156,0.012
			c1.555,0,2.773,0.436,3.654,1.305s1.322,2.065,1.322,3.589c0,0.997-0.221,1.85-0.658,2.56c-0.439,0.71-1.061,1.221-1.867,1.531
			c0.719,0.231,1.234,0.597,1.551,1.095c0.314,0.499,0.5,1.31,0.555,2.435l0.156,2.524c0,0.008,0,0.016,0,0.023
			c0.047,1.101,0.291,1.771,0.73,2.01v0.515h-3.279c-0.127-0.231-0.225-0.504-0.293-0.819c-0.066-0.315-0.117-0.815-0.148-1.501
			l-0.096-2.105c-0.064-1.133-0.301-1.887-0.713-2.262c-0.41-0.375-1.105-0.563-2.088-0.563h-0.561h-3.877v7.25h-2.906V86.489z
			 M372.587,88.966v5.419h4.199c1.229,0,2.109-0.216,2.643-0.646c0.535-0.431,0.803-1.128,0.803-2.093
			c0-0.941-0.262-1.623-0.783-2.046c-0.523-0.423-1.387-0.634-2.592-0.634H372.587z"/>
	</g>
	<g>
		<defs>
			<rect id="SVGID_35_" x="0.786" y="-2.197" width="566.857" height="113"/>
		</defs>
		<clipPath id="SVGID_36_">
			<use xlink:href="#SVGID_35_"  overflow="visible"/>
		</clipPath>
		<g clip-path="url(#SVGID_36_)">
			<path fill="none" stroke="#0066B3" stroke-width="0.735" stroke-miterlimit="10" d="M369.606,86.458h7.598
				c0.23,0,0.486,0.008,0.766,0.023c0.088,0.008,0.139,0.012,0.154,0.012c1.557,0,2.773,0.436,3.654,1.305
				c0.883,0.869,1.322,2.065,1.322,3.589c0,0.997-0.219,1.85-0.658,2.56c-0.438,0.71-1.061,1.221-1.865,1.531
				c0.717,0.231,1.234,0.597,1.549,1.095c0.314,0.499,0.5,1.31,0.557,2.435l0.156,2.524c0,0.008,0,0.016,0,0.023
				c0.047,1.101,0.291,1.771,0.729,2.01v0.515h-3.277c-0.127-0.231-0.227-0.504-0.293-0.819c-0.068-0.315-0.117-0.815-0.15-1.501
				l-0.096-2.105c-0.063-1.133-0.301-1.887-0.711-2.262c-0.412-0.375-1.107-0.563-2.088-0.563h-0.563h-3.875v7.25h-2.908V86.458z
				 M372.489,88.935v5.419h4.199c1.229,0,2.109-0.216,2.645-0.646c0.533-0.431,0.801-1.128,0.801-2.093
				c0-0.941-0.262-1.623-0.783-2.046s-1.385-0.634-2.59-0.634H372.489z"/>
		</g>
	</g>
	<g>
		<path fill="#0066B3" d="M394.044,86.489h6.711c1.086,0,1.889,0.05,2.412,0.149c0.521,0.1,0.99,0.265,1.404,0.496
			c0.807,0.431,1.416,1.051,1.83,1.86c0.416,0.81,0.623,1.78,0.623,2.913c0,0.933-0.172,1.769-0.514,2.506
			c-0.344,0.738-0.842,1.351-1.496,1.837c-0.447,0.327-0.969,0.563-1.566,0.705c-0.6,0.145-1.424,0.216-2.477,0.216h-3.996v6.938
			h-2.932V86.489z M396.976,89.037V94.6h3.805c1.188,0,2.035-0.215,2.541-0.646s0.76-1.137,0.76-2.117
			c0-0.966-0.25-1.673-0.754-2.124c-0.502-0.45-1.295-0.676-2.381-0.676H396.976z"/>
	</g>
	<g>
		<defs>
			<rect id="SVGID_37_" x="0.786" y="-2.197" width="566.857" height="113"/>
		</defs>
		<clipPath id="SVGID_38_">
			<use xlink:href="#SVGID_37_"  overflow="visible"/>
		</clipPath>
		<g clip-path="url(#SVGID_38_)">
			<path fill="none" stroke="#0066B3" stroke-width="0.735" stroke-miterlimit="10" d="M394.083,86.458h6.711
				c1.086,0,1.889,0.05,2.412,0.149c0.521,0.1,0.99,0.265,1.404,0.496c0.807,0.431,1.416,1.051,1.83,1.86
				c0.416,0.81,0.623,1.78,0.623,2.913c0,0.933-0.172,1.769-0.514,2.506c-0.344,0.738-0.842,1.351-1.496,1.837
				c-0.447,0.327-0.969,0.563-1.566,0.705c-0.6,0.145-1.424,0.216-2.477,0.216h-3.996v6.938h-2.932V86.458z M397.015,89.006v5.563
				h3.805c1.188,0,2.035-0.215,2.541-0.646s0.76-1.137,0.76-2.117c0-0.966-0.25-1.673-0.754-2.124
				c-0.502-0.45-1.295-0.676-2.381-0.676H397.015z"/>
		</g>
	</g>
	<g>
		<path fill="#0066B3" d="M409.728,86.489h2.93v14.953h8.697v2.668h-11.627V86.489z"/>
	</g>
	<g>
		<defs>
			<rect id="SVGID_39_" x="0.786" y="-2.197" width="566.857" height="113"/>
		</defs>
		<clipPath id="SVGID_40_">
			<use xlink:href="#SVGID_39_"  overflow="visible"/>
		</clipPath>
		<g clip-path="url(#SVGID_40_)">
			<path fill="none" stroke="#0066B3" stroke-width="0.735" stroke-miterlimit="10" d="M409.688,86.458h2.93v14.953h8.697v2.668
				h-11.627V86.458z"/>
		</g>
	</g>
	<g>
		<path fill="#0066B3" d="M427.69,86.489h3.303l6.471,17.621h-3.135l-1.578-4.558h-6.855l-1.543,4.558h-3.063L427.69,86.489z
			 M429.329,89.456l-2.619,7.645h5.24L429.329,89.456z"/>
	</g>
	<g>
		<defs>
			<rect id="SVGID_41_" x="0.786" y="-2.197" width="566.857" height="113"/>
		</defs>
		<clipPath id="SVGID_42_">
			<use xlink:href="#SVGID_41_"  overflow="visible"/>
		</clipPath>
		<g clip-path="url(#SVGID_42_)">
			<path fill="none" stroke="#0066B3" stroke-width="0.735" stroke-miterlimit="10" d="M427.657,86.458h3.301l6.473,17.621h-3.135
				l-1.578-4.558h-6.855l-1.543,4.558h-3.063L427.657,86.458z M429.296,89.425l-2.621,7.645h5.24L429.296,89.425z"/>
		</g>
	</g>
	<g>
		<path fill="#0066B3" d="M437.472,86.489h13.77v2.584h-5.408v15.037h-2.918V89.073h-5.443V86.489z"/>
	</g>
	<g>
		<defs>
			<rect id="SVGID_43_" x="0.786" y="-2.197" width="566.857" height="113"/>
		</defs>
		<clipPath id="SVGID_44_">
			<use xlink:href="#SVGID_43_"  overflow="visible"/>
		</clipPath>
		<g clip-path="url(#SVGID_44_)">
			<path fill="none" stroke="#0066B3" stroke-width="0.735" stroke-miterlimit="10" d="M437.56,86.458h13.77v2.584h-5.406v15.037
				h-2.92V89.042h-5.443V86.458z"/>
		</g>
	</g>
	<g>
		<path fill="#0066B3" d="M453.208,86.489h12.633v2.584h-9.75v4.605h8.996v2.465h-8.996v5.323h10.074v2.644h-12.957V86.489z"/>
	</g>
	<g>
		<defs>
			<rect id="SVGID_45_" x="0.786" y="-2.197" width="566.857" height="113"/>
		</defs>
		<clipPath id="SVGID_46_">
			<use xlink:href="#SVGID_45_"  overflow="visible"/>
		</clipPath>
		<g clip-path="url(#SVGID_46_)">
			<path fill="none" stroke="#0066B3" stroke-width="0.735" stroke-miterlimit="10" d="M453.126,86.458h12.633v2.584h-9.75v4.605
				h8.996v2.465h-8.996v5.323h10.072v2.644h-12.955V86.458z"/>
		</g>
	</g>
	<g>
		<path fill="#0066B3" d="M481.468,91.633l-2.787,0.013c-0.064-0.997-0.441-1.779-1.131-2.346c-0.689-0.565-1.613-0.849-2.77-0.849
			c-0.957,0-1.738,0.223-2.344,0.67c-0.605,0.446-0.91,1.001-0.91,1.663c0,0.67,0.268,1.218,0.803,1.645
			c0.533,0.427,1.654,0.859,3.361,1.298c2.592,0.654,4.285,1.364,5.078,2.13s1.189,1.834,1.189,3.205
			c0,1.659-0.619,2.993-1.859,4.002s-2.896,1.514-4.971,1.514c-2.186,0-3.887-0.526-5.102-1.579
			c-1.217-1.053-1.869-2.568-1.957-4.546h2.848c0.08,1.141,0.508,2.025,1.285,2.655c0.779,0.63,1.834,0.945,3.164,0.945
			c1.006,0,1.83-0.243,2.471-0.729c0.643-0.486,0.963-1.085,0.963-1.795c0-0.279-0.09-0.596-0.268-0.951
			c-0.18-0.354-0.41-0.659-0.689-0.915c-0.461-0.423-1.49-0.829-3.086-1.22c-0.342-0.088-0.602-0.151-0.777-0.191
			c-1.971-0.519-3.361-1.179-4.176-1.98c-0.813-0.801-1.219-1.892-1.219-3.271c0-1.468,0.596-2.662,1.787-3.583
			c1.193-0.921,2.777-1.382,4.756-1.382c1.922,0,3.455,0.505,4.6,1.514S481.452,89.918,481.468,91.633z"/>
	</g>
	<g>
		<defs>
			<rect id="SVGID_47_" x="0.786" y="-2.197" width="566.857" height="113"/>
		</defs>
		<clipPath id="SVGID_48_">
			<use xlink:href="#SVGID_47_"  overflow="visible"/>
		</clipPath>
		<g clip-path="url(#SVGID_48_)">
			<path fill="none" stroke="#0066B3" stroke-width="0.735" stroke-miterlimit="10" d="M481.554,91.602l-2.787,0.013
				c-0.064-0.997-0.441-1.779-1.131-2.346c-0.689-0.565-1.613-0.849-2.77-0.849c-0.957,0-1.738,0.223-2.344,0.67
				c-0.605,0.446-0.91,1.001-0.91,1.663c0,0.67,0.268,1.218,0.803,1.645c0.533,0.427,1.654,0.859,3.361,1.298
				c2.592,0.654,4.285,1.364,5.078,2.13s1.189,1.834,1.189,3.205c0,1.659-0.619,2.993-1.859,4.002s-2.896,1.514-4.971,1.514
				c-2.186,0-3.887-0.526-5.102-1.579c-1.217-1.053-1.869-2.568-1.957-4.546h2.848c0.08,1.141,0.508,2.025,1.285,2.655
				c0.779,0.63,1.834,0.945,3.164,0.945c1.006,0,1.83-0.243,2.471-0.729c0.643-0.486,0.963-1.085,0.963-1.795
				c0-0.279-0.09-0.596-0.268-0.951c-0.18-0.354-0.41-0.659-0.689-0.915c-0.461-0.423-1.49-0.829-3.086-1.22
				c-0.342-0.088-0.602-0.151-0.777-0.191c-1.971-0.519-3.361-1.179-4.176-1.98c-0.813-0.801-1.219-1.892-1.219-3.271
				c0-1.468,0.596-2.662,1.787-3.583c1.193-0.921,2.777-1.382,4.756-1.382c1.922,0,3.455,0.505,4.6,1.514
				S481.538,89.887,481.554,91.602z"/>
		</g>
	</g>
</g>
</svg>
